<?xml version="1.0" standalone="no"?>
<!DOCTYPE svg PUBLIC "-//W3C//DTD SVG 20010904//EN"
 "http://www.w3.org/TR/2001/REC-SVG-20010904/DTD/svg10.dtd">
<svg version="1.0" xmlns="http://www.w3.org/2000/svg"
 width="440.000000pt" height="134.000000pt" viewBox="0 0 440.000000 134.000000"
 preserveAspectRatio="xMidYMid meet">

<g transform="translate(0.000000,134.000000) scale(0.100000,-0.100000)"
fill="#000000" stroke="none">
<path d="M0 670 l0 -670 2200 0 2200 0 0 670 0 670 -2200 0 -2200 0 0 -670z
m3814 476 c66 -50 66 -53 66 -471 0 -417 1 -410 -67 -462 l-36 -28 -1181 0
c-1163 0 -1181 0 -1214 20 -18 11 -43 36 -55 55 -22 34 -22 42 -22 420 0 379
0 386 22 420 23 37 50 58 93 71 14 4 550 7 1191 6 l1166 -2 37 -29z m-2824
-317 l0 -40 -42 3 c-42 3 -43 4 -46 41 l-3 37 45 0 46 0 0 -41z m168 -26 c3
-40 5 -43 33 -43 27 0 29 -3 29 -35 0 -32 -2 -35 -30 -35 l-31 0 3 -82 c3 -82
3 -83 31 -86 24 -3 27 -8 27 -38 l0 -34 -57 0 c-86 0 -93 11 -93 137 l0 103
-25 0 c-22 0 -25 4 -25 35 0 31 3 35 25 35 23 0 25 4 25 46 l0 45 43 -3 c42
-3 42 -3 45 -45z m-443 -47 c19 -8 35 -11 35 -5 0 5 21 9 46 9 l45 0 -3 -174
-3 -175 -29 -30 c-56 -59 -185 -59 -238 -1 -42 46 -37 60 20 60 36 0 50 -5 60
-20 27 -44 102 -13 102 42 0 28 -1 29 -22 14 -13 -9 -43 -16 -70 -16 -38 0
-54 6 -78 28 -79 72 -55 236 40 269 46 16 54 16 95 -1z m275 -151 l0 -155 -45
0 -45 0 0 155 0 155 45 0 45 0 0 -155z"/>
<path d="M1490 605 l0 -155 45 0 45 0 0 103 c0 112 11 137 58 137 33 0 42 -30
42 -139 l0 -101 45 0 45 0 0 101 c0 116 8 139 51 139 40 0 49 -27 49 -146 l0
-94 40 0 40 0 0 130 c0 126 -1 132 -25 155 -32 33 -110 35 -147 5 -25 -19 -26
-19 -43 0 -22 24 -101 27 -131 5 -25 -19 -34 -19 -34 0 0 11 -11 15 -40 15
l-40 0 0 -155z"/>
<path d="M2069 737 c-63 -42 -87 -134 -55 -211 41 -97 205 -114 263 -27 13 19
23 38 23 42 0 17 -72 9 -97 -11 -33 -25 -68 -25 -93 0 -42 42 -29 50 85 50
l105 0 0 35 c0 53 -25 102 -62 125 -47 28 -124 27 -169 -3z m129 -65 c21 -27
14 -32 -48 -32 -63 0 -72 7 -42 32 33 30 65 30 90 0z"/>
<path d="M2350 605 l0 -155 45 0 45 0 0 103 c0 112 11 137 58 137 33 0 42 -30
42 -139 l0 -101 45 0 45 0 0 101 c0 116 8 139 51 139 40 0 49 -27 49 -146 l0
-94 40 0 40 0 0 130 c0 126 -1 132 -25 155 -32 33 -110 35 -147 5 -25 -19 -26
-19 -43 0 -22 24 -101 27 -131 5 -25 -19 -34 -19 -34 0 0 11 -11 15 -40 15
l-40 0 0 -155z"/>
<path d="M2933 741 c-46 -29 -67 -75 -67 -144 1 -98 57 -152 157 -152 103 0
157 56 157 160 0 52 -16 89 -55 125 -37 34 -145 41 -192 11z m140 -73 c39 -45
7 -158 -44 -158 -74 0 -104 115 -43 168 29 26 58 23 87 -10z"/>
<path d="M3230 605 l0 -155 45 0 45 0 0 89 c0 107 18 141 76 141 26 0 34 4 34
18 1 9 24 -43 51 -116 55 -145 55 -162 -2 -162 -26 0 -29 -3 -29 -34 0 -28 4
-35 25 -40 43 -11 103 11 120 44 18 35 135 347 135 360 0 6 -20 10 -45 10
l-44 0 -22 -72 c-40 -136 -37 -135 -73 -28 l-33 95 -73 3 c-62 2 -78 0 -102
-18 -28 -21 -28 -21 -28 0 0 17 -6 20 -40 20 l-40 0 0 -155z"/>
<path d="M647 672 c-24 -26 -23 -104 1 -125 43 -39 102 -4 102 61 0 21 -7 48
-16 60 -19 27 -64 29 -87 4z"/>
</g>
</svg>
