<?xml version="1.0" standalone="no"?>
<!DOCTYPE svg PUBLIC "-//W3C//DTD SVG 20010904//EN"
 "http://www.w3.org/TR/2001/REC-SVG-20010904/DTD/svg10.dtd">
<svg version="1.0" xmlns="http://www.w3.org/2000/svg"
 width="200.000000pt" height="200.000000pt" viewBox="0 0 200.000000 200.000000"
 preserveAspectRatio="xMidYMid meet">

<g transform="translate(0.000000,200.000000) scale(0.100000,-0.100000)"
fill="#000000" stroke="none">
<path d="M395 1600 l-49 -50 78 -79 79 -79 -26 -34 c-67 -88 -107 -221 -107
-358 0 -179 55 -316 179 -440 133 -134 266 -190 451 -190 144 0 263 36 358
107 l34 26 79 -79 79 -79 52 53 53 52 -79 79 -79 79 26 34 c35 45 72 129 92
203 19 76 19 233 0 310 -54 210 -219 384 -430 451 -172 54 -411 18 -543 -83
l-34 -26 -77 77 c-42 42 -79 76 -82 76 -2 0 -27 -23 -54 -50z m777 -149 c122
-47 233 -159 279 -280 26 -70 35 -197 20 -273 -12 -56 -66 -178 -79 -178 -4 0
-158 151 -342 335 -270 271 -332 337 -320 346 37 25 94 51 143 64 76 22 226
14 299 -14z m-222 -506 c270 -271 332 -337 320 -346 -114 -76 -280 -100 -414
-59 -133 42 -257 157 -306 287 -31 81 -38 219 -15 299 17 59 63 154 74 154 3
0 157 -151 341 -335z"/>
</g>
</svg>
